<?xml version="1.0" standalone="no"?>
<!DOCTYPE svg PUBLIC "-//W3C//DTD SVG 20010904//EN"
 "http://www.w3.org/TR/2001/REC-SVG-20010904/DTD/svg10.dtd">
<svg version="1.0" xmlns="http://www.w3.org/2000/svg"
 width="2049.000000pt" height="182.000000pt" viewBox="0 0 2049.000000 182.000000"
 preserveAspectRatio="xMidYMid meet">

<g transform="translate(0.000000,182.000000) scale(0.100000,-0.100000)"
fill="#e9e9e9" stroke="none">
<path d="M0 1357 l0 -463 40 4 c24 3 40 0 40 -7 0 -5 18 -15 40 -21 46 -12 52
-27 13 -32 l-28 -3 35 -19 35 -19 -25 -9 c-24 -10 -24 -10 -5 -18 11 -5 36 -9
55 -9 l35 0 -28 23 c-25 20 -26 24 -13 35 9 8 27 10 46 6 30 -7 43 8 18 19 -7
3 16 4 52 2 71 -3 121 -21 114 -41 -3 -6 2 -18 10 -25 21 -16 48 -6 39 16 -5
14 0 15 48 9 74 -10 89 -19 61 -36 -12 -8 -22 -16 -22 -20 0 -8 90 -29 130
-30 19 0 69 3 110 8 136 16 361 2 378 -23 12 -18 37 -22 73 -14 l34 8 -32 1
c-18 1 -33 6 -33 11 0 6 15 11 33 11 17 1 24 3 15 6 -18 4 -26 23 -10 23 19 0
131 -54 126 -61 -3 -5 17 -9 45 -9 43 0 49 -2 44 -17 -5 -13 -3 -15 13 -8 10
5 30 7 44 6 14 -1 96 -2 182 -3 86 -1 155 -5 152 -9 -5 -9 46 -22 54 -14 4 3
0 11 -8 16 -10 7 3 8 42 3 32 -3 74 -3 93 0 l36 7 -22 18 c-22 18 -22 18 36
29 72 15 92 15 108 2 48 -41 62 -50 74 -50 7 0 13 9 13 20 0 16 7 20 33 21 29
1 28 2 -12 10 -57 11 -64 19 -18 19 21 0 45 4 55 9 53 27 79 31 204 34 l138 2
43 -47 c24 -27 49 -48 55 -48 7 0 12 -4 12 -10 0 -5 12 -10 28 -9 16 0 21 3
12 6 -17 7 -46 44 -42 56 1 4 -4 10 -12 13 -18 7 -9 34 10 34 8 0 14 5 14 10
0 11 -73 15 -295 15 -137 0 -150 1 -147 18 2 11 -4 17 -17 17 -11 0 -23 4 -26
10 -7 11 161 8 172 -3 10 -11 38 -8 69 7 22 11 42 12 83 5 56 -9 76 -5 52 10
-11 7 -9 10 8 16 22 7 132 -26 163 -49 9 -6 16 -21 15 -32 -2 -16 6 -20 48
-25 55 -6 125 -34 125 -49 0 -5 -9 -16 -21 -24 -21 -14 -21 -14 9 -30 22 -12
29 -21 25 -36 -4 -14 2 -23 21 -31 31 -15 45 -5 29 21 -10 14 -9 19 1 23 15 6
19 57 5 57 -5 0 -9 9 -9 20 0 13 9 22 28 26 15 4 35 13 44 22 21 18 50 9 42
-13 -6 -15 4 -19 37 -16 9 1 19 -6 23 -15 8 -20 12 -16 -49 -48 l-50 -27 38 6
c27 4 42 2 54 -10 12 -12 26 -15 56 -10 25 5 37 4 33 -3 -9 -15 23 -23 44 -12
22 12 80 13 80 2 0 -8 30 -16 155 -44 28 -6 113 -11 190 -12 77 -1 146 -5 152
-9 17 -10 337 -30 523 -32 80 -1 186 -3 235 -4 58 -2 115 3 160 14 39 9 84 14
105 10 24 -4 31 -3 20 4 -21 14 -9 22 52 30 29 4 64 14 78 24 14 9 68 21 120
28 57 7 101 18 110 27 10 10 11 17 4 19 -8 3 -9 15 -4 37 10 43 18 56 36 56 8
0 14 6 14 14 0 23 38 30 65 12 31 -21 38 -20 31 2 -5 14 2 20 34 28 21 6 37 7
34 3 -3 -5 11 -9 31 -9 26 0 34 -3 28 -12 -4 -7 5 -5 20 5 17 11 37 15 54 12
27 -6 27 -6 8 10 -12 10 -29 14 -44 10 -22 -6 -22 -5 -7 11 13 12 20 14 29 5
15 -15 61 -15 51 0 -8 13 13 29 39 29 11 0 33 -7 50 -14 56 -26 161 -56 192
-55 17 0 44 -2 60 -6 l30 -6 -27 25 c-16 14 -28 27 -28 30 0 3 17 6 38 8 30 2
38 7 40 25 2 13 9 23 15 23 7 0 6 4 -3 10 -13 9 -13 11 0 20 20 13 90 13 90 0
0 -5 6 -10 14 -10 8 0 43 -13 78 -29 96 -43 98 -44 168 -52 36 -4 77 -10 93
-14 35 -9 35 5 0 27 l-28 17 42 1 c23 0 48 6 55 14 17 16 71 9 106 -14 25 -17
30 -50 7 -50 -8 0 -15 -7 -15 -15 0 -8 7 -15 15 -15 24 0 18 -45 -7 -58 l-23
-11 23 0 c12 -1 22 -5 22 -11 0 -5 8 -10 18 -10 18 0 42 -18 42 -31 0 -4 -12
-9 -27 -11 -22 -2 -29 -9 -31 -30 l-3 -28 107 0 c59 0 104 3 101 6 -4 4 3 15
15 25 21 19 21 19 -30 19 -29 0 -52 5 -52 10 0 6 11 10 25 10 23 0 24 2 13 20
-7 11 -21 20 -31 20 -37 0 -6 18 43 24 36 5 58 2 80 -9 17 -9 40 -13 50 -10
22 7 70 -21 70 -41 0 -10 12 -14 38 -13 20 1 29 3 20 6 -9 2 -20 13 -23 24 -4
11 -16 28 -27 39 -20 18 -20 19 28 25 27 4 73 10 103 15 30 4 62 5 72 3 9 -3
26 0 36 6 12 7 13 10 4 11 -11 0 -11 3 -1 15 10 12 10 15 -3 15 -18 0 -50 47
-42 60 9 15 35 12 41 -5 4 -8 14 -15 23 -15 26 0 108 -34 109 -45 1 -5 9 -11
19 -13 15 -3 16 -1 3 7 -11 8 -5 11 27 11 23 0 45 -5 48 -10 3 -6 1 -10 -4
-10 -6 0 -11 -4 -11 -9 0 -19 112 -31 335 -34 151 -2 145 2 124 -112 -13 -71
-15 -158 -4 -175 9 -14 62 25 70 50 4 12 15 20 28 20 35 0 49 15 56 56 5 33
11 40 36 45 18 4 22 7 11 8 -33 2 -6 18 55 34 31 8 78 12 106 10 45 -5 51 -3
66 21 11 16 27 26 42 26 13 0 27 5 30 10 3 6 1 10 -5 10 -6 0 -8 5 -5 11 4 6
22 9 41 7 18 -1 38 2 44 8 6 6 22 9 36 6 19 -3 22 -7 13 -13 -10 -6 -7 -10 10
-17 17 -6 21 -11 12 -16 -9 -6 -4 -13 16 -24 20 -11 55 -16 123 -16 l96 -1 -4
-27 c-4 -25 -8 -28 -42 -28 -21 0 -43 7 -50 15 -7 8 -22 15 -33 15 -11 0 -17
-3 -14 -7 4 -3 1 -13 -6 -21 -9 -12 -9 -16 1 -19 6 -3 12 -11 12 -18 0 -15 27
-28 42 -19 5 3 7 12 4 20 -4 11 5 14 39 14 27 0 45 -5 45 -11 0 -7 9 -9 21 -6
18 5 20 2 14 -23 -11 -50 8 -70 68 -70 62 0 85 14 89 55 2 22 8 30 23 30 16 0
19 -6 17 -29 l-4 -29 56 7 c52 6 56 5 56 -14 0 -11 6 -20 14 -20 11 0 13 10 9
41 -4 29 -2 44 8 50 19 12 32 11 24 0 -3 -6 4 -15 15 -21 25 -13 67 -3 52 12
-14 14 16 64 48 79 14 7 59 19 100 28 63 14 75 20 78 38 2 13 13 24 28 27 21
6 24 9 14 21 -10 12 -9 15 8 15 27 0 84 -25 76 -33 -13 -12 19 -37 47 -37 21
0 27 4 23 15 -5 11 1 15 20 15 19 0 26 5 26 19 0 16 5 17 43 9 23 -4 58 -10
77 -12 19 -2 23 -1 8 1 -16 2 -28 8 -28 12 0 17 30 32 57 29 22 -2 29 -9 31
-29 4 -31 58 -67 75 -50 19 19 27 12 17 -15 l-10 -27 49 5 c28 3 57 11 65 17
14 11 13 16 0 37 -16 23 -15 24 25 30 23 4 41 11 41 16 0 14 -46 4 -107 -23
-45 -19 -56 -21 -76 -10 -13 7 -24 19 -24 27 0 17 0 17 48 3 36 -11 40 -10 79
23 34 30 47 35 80 32 22 -2 50 -9 63 -16 15 -8 78 -12 192 -12 168 -1 170 -1
173 -24 3 -16 -2 -22 -17 -22 -11 0 -23 4 -26 10 -7 12 -42 11 -113 -2 -64
-12 -59 -28 9 -28 27 0 49 -5 49 -10 0 -6 8 -5 19 2 11 7 17 16 15 20 -3 4 -1
8 5 8 5 0 13 -5 16 -10 3 -6 15 -10 26 -10 14 0 19 -7 19 -26 0 -25 -2 -26
-40 -20 -25 4 -40 2 -40 -4 0 -5 -6 -10 -14 -10 -15 0 -50 -30 -43 -37 6 -5
60 19 68 30 10 15 81 -4 75 -19 -6 -16 20 -19 29 -4 3 6 16 10 27 10 12 0 18
-3 14 -7 -4 -4 13 -13 36 -20 51 -15 71 -16 64 -4 -4 5 0 12 6 14 7 3 -6 6
-29 6 -53 1 -57 21 -5 22 l37 1 -35 7 c-65 13 -84 41 -27 41 44 0 78 -10 71
-21 -3 -5 1 -9 8 -9 7 0 24 -3 38 -7 22 -6 23 -4 12 9 -10 13 -10 17 4 22 23
9 64 7 64 -3 0 -5 -9 -11 -19 -14 -10 -2 -24 -13 -30 -24 -16 -31 23 -47 94
-38 53 6 56 8 41 24 -25 27 -19 34 21 28 20 -4 42 -2 49 4 9 7 19 7 34 -1 12
-6 28 -9 37 -6 19 8 75 -25 69 -41 -3 -6 3 -15 13 -18 23 -7 69 9 53 19 -7 4
-12 4 -12 -1 0 -4 -6 1 -14 12 -7 11 -13 24 -12 28 0 5 -10 15 -24 22 l-25 14
27 1 c15 0 48 -11 74 -25 26 -14 58 -25 70 -25 13 0 24 -4 24 -10 0 -5 -12
-10 -26 -10 -23 0 -24 -2 -10 -15 15 -16 54 -18 96 -5 l25 7 -27 11 c-16 6
-28 17 -28 23 0 13 118 3 136 -12 21 -17 74 3 100 36 13 17 24 37 24 43 0 7 4
12 10 12 6 0 7 -18 4 -43 -7 -47 16 -107 39 -107 32 1 57 14 57 31 0 15 8 19
33 20 l32 1 -30 8 c-24 6 -25 8 -8 9 21 1 46 31 41 48 -4 12 40 53 57 53 8 0
15 -7 15 -15 0 -8 -9 -15 -19 -15 -11 0 -23 -4 -26 -10 -4 -6 5 -10 19 -10 27
0 35 -15 14 -23 -10 -4 -10 -6 0 -6 6 -1 12 -8 12 -16 0 -25 23 -65 37 -65 8
0 28 -7 45 -16 30 -16 31 -15 60 20 16 20 36 36 44 36 8 0 14 5 14 12 0 7 7 5
18 -4 36 -33 93 -48 182 -48 49 0 95 -3 104 -6 31 -12 15 -24 -31 -24 -35 0
-44 -3 -36 -11 9 -9 70 -9 245 0 128 7 237 15 241 18 5 3 16 -2 26 -11 21 -19
55 -11 47 10 -4 10 5 14 34 14 22 0 40 5 40 10 0 6 -16 10 -35 10 -46 0 -96
50 -62 63 9 4 8 8 -3 16 -12 8 -12 12 2 28 8 10 13 24 10 32 -3 11 2 12 23 7
26 -7 27 -6 14 10 -13 16 -11 17 20 11 18 -4 37 -7 42 -7 19 0 8 -19 -13 -23
-14 -3 -9 -5 15 -6 l37 -1 0 -64 c0 -61 1 -64 28 -71 l27 -7 -27 -22 c-16 -12
-28 -31 -28 -43 0 -21 5 -22 103 -25 56 -2 106 0 112 4 5 5 4 8 -4 8 -8 0 -6
6 5 17 17 17 16 18 -19 21 -33 3 -41 10 -39 33 1 4 -19 10 -43 14 -25 3 -45
10 -45 14 0 14 57 21 166 21 95 0 104 -2 115 -21 6 -12 9 -29 6 -40 -7 -25 16
-41 48 -33 16 4 22 9 15 14 -6 4 -12 21 -12 39 -1 17 -5 34 -11 38 -21 13 42
32 108 33 75 0 144 18 138 36 -2 6 11 17 28 25 31 12 31 13 11 22 -12 6 -22
14 -22 19 0 9 12 7 84 -14 32 -10 43 -9 67 4 21 12 36 14 61 8 61 -16 139 -30
161 -29 22 0 22 0 -1 10 -29 11 -19 29 16 29 30 0 61 -35 39 -43 -7 -3 5 -6
26 -6 34 -1 36 0 25 19 -18 29 -4 34 42 16 22 -9 51 -16 64 -16 27 0 73 -60
55 -71 -7 -4 -4 -9 5 -12 18 -7 23 -72 6 -82 -5 -3 -10 -1 -10 4 0 6 -10 11
-21 11 -18 0 -19 -2 -9 -15 7 -8 19 -15 26 -15 22 0 17 -41 -6 -47 -11 -3 -20
-10 -20 -15 0 -6 6 -8 14 -5 11 4 14 -8 15 -56 1 -78 12 -89 51 -52 16 16 30
35 30 42 0 8 12 13 28 13 35 0 52 16 52 51 0 65 84 106 206 100 48 -2 54 1 74
28 14 21 31 31 48 32 18 1 21 3 9 6 -29 8 -13 28 24 31 19 1 43 7 54 12 13 7
37 7 65 1 32 -6 37 -9 18 -10 -16 -1 -28 -6 -28 -12 0 -7 14 -8 40 -4 39 7 40
6 46 -24 10 -47 25 -55 103 -47 62 5 69 4 66 -12 -16 -79 -16 -82 10 -82 22 0
24 -4 23 -35 -2 -47 13 -60 67 -57 63 2 85 16 85 52 0 25 4 30 25 30 22 0 25
-3 19 -27 l-7 -26 56 6 c40 5 57 4 60 -6 4 -9 8 -9 15 2 6 8 18 11 28 7 14 -4
13 -1 -5 14 -29 25 -20 38 37 51 22 5 53 22 70 39 17 17 41 30 55 30 14 0 40
7 60 15 22 9 55 13 88 10 30 -2 47 -2 38 1 -22 7 -45 57 -29 62 6 2 15 14 20
26 7 21 13 22 101 20 59 -2 86 1 74 6 -11 5 -38 9 -60 10 -22 1 -51 5 -65 9
-24 7 -24 8 10 15 19 5 40 9 45 10 20 3 120 -26 135 -39 8 -8 39 -17 68 -21
29 -3 55 -11 58 -16 3 -5 38 -6 78 -2 54 5 75 3 81 -6 4 -7 2 -16 -6 -21 -19
-12 -49 -11 -49 1 0 6 10 10 22 10 12 0 19 3 16 6 -3 3 -22 2 -42 -2 -27 -5
-34 -9 -26 -19 5 -6 7 -15 3 -19 -9 -8 28 -42 57 -51 12 -4 25 -3 29 2 3 4 20
13 36 19 25 8 30 15 29 39 0 17 4 33 10 37 6 4 81 8 167 8 l155 0 56 -55 c43
-43 62 -55 84 -54 23 1 25 3 7 6 -20 4 -36 28 -30 44 1 4 -7 17 -17 28 -20 22
-20 22 2 28 45 11 19 23 -53 23 -43 0 -75 4 -75 10 0 6 28 10 64 10 36 0 68 5
71 11 4 6 13 8 21 5 8 -3 11 0 7 11 -4 11 -1 14 13 11 16 -3 19 -11 16 -58 -2
-29 -1 -73 3 -97 8 -53 30 -57 65 -9 l24 33 118 -1 117 -1 -30 -24 -31 -24 33
-14 c25 -10 40 -11 66 -2 33 10 33 11 18 40 -21 40 -13 42 140 37 109 -3 128
-7 154 -26 17 -12 36 -22 44 -22 24 0 28 -13 10 -32 -9 -10 -12 -18 -7 -18 5
0 2 -5 -6 -10 -22 -14 58 -13 99 1 39 14 42 39 4 39 -20 0 -24 3 -16 11 7 7
25 8 55 2 23 -4 76 -8 115 -8 71 0 94 -10 71 -33 -26 -26 82 -40 135 -17 18 8
25 14 15 15 -11 0 -18 8 -18 20 0 15 7 20 28 20 32 1 60 20 55 38 -5 13 9 15
45 6 12 -4 22 -13 22 -21 0 -29 29 -70 64 -88 19 -10 33 -23 30 -27 -3 -4 1
-8 8 -8 7 1 22 15 33 33 11 17 29 33 40 36 11 2 23 8 26 13 4 6 17 3 34 -8 25
-16 26 -19 9 -25 -11 -4 40 -8 111 -8 72 -1 140 -4 153 -7 37 -10 25 -24 -23
-24 -27 0 -45 -5 -45 -11 0 -12 232 -6 435 10 74 6 80 8 85 31 l6 25 154 0
c119 0 169 4 215 18 34 10 73 15 90 12 20 -4 26 -3 16 3 -18 13 -3 20 50 26
50 6 121 23 101 25 -7 1 -10 5 -7 11 3 5 26 10 50 10 55 0 144 19 160 34 10 8
9 14 -4 23 -15 11 -14 12 1 13 10 0 17 5 15 12 -1 8 13 11 46 9 l47 -3 0 496
0 496 -10245 0 -10245 0 0 -463z m62 -399 c-9 -9 -15 -9 -24 0 -9 9 -7 12 12
12 19 0 21 -3 12 -12z m2845 -8 c-1 -15 -6 -18 -27 -13 -35 8 -36 11 -9 22 35
14 38 13 36 -9z m3738 -9 c10 -17 -12 -21 -25 -6 -10 12 -10 15 3 15 9 0 18
-4 22 -9z m120 -1 c3 -5 -1 -10 -9 -10 -9 0 -16 5 -16 10 0 6 4 10 9 10 6 0
13 -4 16 -10z m62 -26 c-3 -3 -12 -4 -19 -1 -8 3 -5 6 6 6 11 1 17 -2 13 -5z
m3357 -10 c4 -9 4 -19 1 -22 -6 -6 -35 18 -35 29 0 16 28 10 34 -7z m-4049 -4
c4 -6 -5 -10 -20 -10 -15 0 -24 4 -20 10 3 6 12 10 20 10 8 0 17 -4 20 -10z
m6472 -6 c6 -17 -46 -27 -64 -12 -13 11 -13 13 4 20 24 10 56 6 60 -8z m606 9
c-7 -2 -21 -2 -30 0 -10 3 -4 5 12 5 17 0 24 -2 18 -5z m-13011 -13 c10 0 16
-4 13 -10 -3 -5 -1 -10 4 -10 16 0 13 -17 -4 -24 -8 -3 -21 1 -29 9 -8 8 -21
15 -29 15 -8 0 -21 8 -28 17 -13 15 -11 16 20 10 18 -4 42 -7 53 -7z m7818 -4
c0 -9 -9 -12 -27 -9 -24 3 -25 2 -8 -6 11 -5 14 -10 7 -10 -10 -1 -10 -4 2
-16 20 -20 66 -20 66 1 0 25 39 13 58 -18 9 -15 14 -29 12 -30 -3 -2 -33 -2
-67 0 -46 3 -63 8 -63 18 0 11 -17 14 -67 15 -65 2 -89 3 -159 7 -18 1 -34 8
-37 16 -5 12 0 12 26 5 39 -11 80 -12 73 -1 -2 4 4 13 15 20 16 10 22 9 36 -8
21 -24 43 -26 43 -5 0 8 -8 15 -17 15 -15 0 -16 2 -3 10 24 15 110 13 110 -4z
m1898 5 c11 -7 11 -9 -1 -14 -16 -6 -27 0 -27 15 0 10 11 10 28 -1z m-64 -9
c3 -5 -18 -9 -47 -10 -35 -1 -47 2 -37 8 19 12 77 13 84 2z m291 -8 c11 -5 21
-15 23 -22 2 -10 -2 -10 -20 0 -13 6 -45 12 -72 12 -29 1 -51 6 -53 13 -5 14
88 12 122 -3z m3125 -2 c0 -10 -67 -8 -77 2 -3 3 12 6 35 6 23 0 42 -4 42 -8z
m-12963 -8 c-3 -3 -12 -4 -19 -1 -8 3 -5 6 6 6 11 1 17 -2 13 -5z m2841 -20
c17 -7 32 -17 32 -23 0 -12 -64 5 -68 19 -2 6 -22 10 -45 10 -31 0 -38 3 -27
10 17 11 57 5 108 -16z m10792 17 c0 -16 -20 -23 -46 -17 -36 9 -29 26 11 26
19 0 35 -4 35 -9z m-4093 -17 c-3 -3 -12 -4 -19 -1 -8 3 -5 6 6 6 11 1 17 -2
13 -5z m4059 -29 l29 -15 -26 0 c-15 0 -29 7 -33 15 -7 19 -5 19 30 0z m-4033
-12 c-7 -2 -19 -2 -25 0 -7 3 -2 5 12 5 14 0 19 -2 13 -5z m-6693 -13 c0 -5
-6 -10 -14 -10 -8 0 -18 5 -21 10 -3 6 3 10 14 10 12 0 21 -4 21 -10z m9253 3
c-7 -2 -19 -2 -25 0 -7 3 -2 5 12 5 14 0 19 -2 13 -5z m-1100 -24 c-14 -14
-106 -24 -130 -14 -17 7 -17 8 2 15 11 5 47 9 80 9 44 1 56 -2 48 -10z m1071
1 c14 -5 26 -17 26 -26 0 -14 -7 -16 -36 -11 -45 8 -50 12 -34 32 15 18 12 17
44 5z m306 -50 c0 -5 -12 -10 -26 -10 -14 0 -23 4 -19 10 3 6 15 10 26 10 10
0 19 -4 19 -10z"/>
<path d="M6285 880 c-4 -6 3 -10 14 -10 25 0 27 6 6 13 -8 4 -17 2 -20 -3z"/>
<path d="M6710 875 c0 -8 9 -15 20 -15 13 0 18 5 14 15 -4 8 -12 15 -20 15 -8
0 -14 -7 -14 -15z"/>
<path d="M2738 833 c6 -2 18 -2 25 0 6 3 1 5 -13 5 -14 0 -19 -2 -12 -5z"/>
<path d="M5900 830 c0 -5 7 -10 15 -10 8 0 15 5 15 10 0 6 -7 10 -15 10 -8 0
-15 -4 -15 -10z"/>
<path d="M6728 833 c-29 -7 -20 -22 17 -29 42 -7 53 -1 35 21 -13 15 -21 16
-52 8z"/>
<path d="M2418 823 c7 -3 16 -2 19 1 4 3 -2 6 -13 5 -11 0 -14 -3 -6 -6z"/>
<path d="M10480 820 c0 -5 12 -10 26 -10 14 0 23 4 19 10 -3 6 -15 10 -26 10
-10 0 -19 -4 -19 -10z"/>
<path d="M5920 800 c0 -15 40 -32 58 -25 15 6 15 8 -2 21 -23 16 -56 19 -56 4z"/>
<path d="M6555 800 c3 -5 15 -10 26 -10 10 0 19 5 19 10 0 6 -12 10 -26 10
-14 0 -23 -4 -19 -10z"/>
<path d="M10565 800 c-4 -7 -18 -9 -30 -6 -24 6 -43 -8 -26 -19 14 -8 3 -33
-17 -38 -10 -2 -3 -2 14 0 47 5 96 32 92 51 -4 19 -24 27 -33 12z"/>
<path d="M14073 803 c-51 -7 -37 -35 22 -46 36 -7 110 -23 148 -33 17 -4 27
-2 27 5 0 7 33 10 108 7 59 -3 95 -2 80 0 -35 7 -36 19 -4 36 21 11 3 13 -124
13 -81 0 -152 -3 -156 -7 -11 -12 -74 -10 -74 2 0 6 14 10 31 10 17 0 28 4 24
10 -6 10 -21 10 -82 3z"/>
<path d="M6290 791 c0 -14 18 -23 31 -15 8 4 7 9 -2 15 -18 11 -29 11 -29 0z"/>
<path d="M6488 793 c6 -2 18 -2 25 0 6 3 1 5 -13 5 -14 0 -19 -2 -12 -5z"/>
<path d="M7563 788 c28 -7 42 -7 50 1 8 8 -2 11 -38 10 l-50 -1 38 -10z"/>
<path d="M7632 788 c5 -15 37 -18 41 -3 1 6 -9 12 -22 13 -16 3 -22 -1 -19
-10z"/>
<path d="M6775 780 c3 -5 13 -10 21 -10 8 0 12 5 9 10 -3 6 -13 10 -21 10 -8
0 -12 -4 -9 -10z"/>
<path d="M10020 780 c8 -5 22 -10 30 -10 13 0 13 1 0 10 -8 5 -22 10 -30 10
-13 0 -13 -1 0 -10z"/>
<path d="M6035 770 c3 -5 15 -10 26 -10 10 0 19 5 19 10 0 6 -12 10 -26 10
-14 0 -23 -4 -19 -10z"/>
<path d="M16278 772 c-16 -2 -28 -8 -28 -13 0 -13 47 -11 55 2 9 14 5 15 -27
11z"/>
<path d="M20440 770 c0 -5 9 -10 19 -10 11 0 23 5 26 10 4 6 -5 10 -19 10 -14
0 -26 -4 -26 -10z"/>
<path d="M5716 755 c-19 -15 -19 -15 3 -15 12 0 20 4 17 9 -4 5 0 12 6 14 7 3
9 6 3 6 -5 0 -19 -6 -29 -14z"/>
<path d="M6313 763 c-20 -7 -15 -23 7 -23 11 0 20 4 20 9 0 13 -12 19 -27 14z"/>
<path d="M6643 750 c3 -21 32 -52 57 -62 9 -3 33 -2 55 2 l40 8 -37 1 c-50 1
-60 21 -11 22 l38 1 -35 7 c-19 4 -49 15 -67 24 -41 22 -44 21 -40 -3z"/>
<path d="M7358 758 c9 -9 15 -9 24 0 9 9 7 12 -12 12 -19 0 -21 -3 -12 -12z"/>
<path d="M7795 760 c3 -5 15 -10 25 -10 10 0 22 5 25 10 4 6 -7 10 -25 10 -18
0 -29 -4 -25 -10z"/>
<path d="M9937 764 c-27 -8 -9 -24 28 -24 19 0 37 -4 40 -10 3 -5 17 -10 31
-10 l24 0 -21 21 c-21 21 -70 32 -102 23z"/>
<path d="M5760 750 c0 -5 9 -10 21 -10 11 0 17 5 14 10 -3 6 -13 10 -21 10 -8
0 -14 -4 -14 -10z"/>
<path d="M7724 753 c-42 -8 -4 -75 51 -89 24 -6 27 -5 20 15 -6 18 -2 21 27
22 30 0 29 2 -17 14 -27 8 -53 14 -57 15 -18 1 -6 19 15 23 18 3 18 4 2 4 -11
0 -30 -2 -41 -4z"/>
<path d="M16992 735 c-25 -21 -40 -25 -91 -25 -61 0 -67 -4 -55 -34 10 -27 86
-21 118 9 15 14 33 25 40 25 7 0 20 6 30 13 16 11 16 15 3 25 -12 10 -20 8
-45 -13z"/>
<path d="M2418 743 c7 -3 16 -2 19 1 4 3 -2 6 -13 5 -11 0 -14 -3 -6 -6z"/>
<path d="M2918 743 c6 -2 18 -2 25 0 6 3 1 5 -13 5 -14 0 -19 -2 -12 -5z"/>
<path d="M6393 743 c9 -2 23 -2 30 0 6 3 -1 5 -18 5 -16 0 -22 -2 -12 -5z"/>
<path d="M6525 740 c3 -5 10 -10 16 -10 5 0 9 5 9 10 0 6 -7 10 -16 10 -8 0
-12 -4 -9 -10z"/>
<path d="M7918 743 c6 -2 18 -2 25 0 6 3 1 5 -13 5 -14 0 -19 -2 -12 -5z"/>
<path d="M10100 746 c0 -2 11 -6 25 -8 14 -3 25 -1 25 3 0 5 -11 9 -25 9 -14
0 -25 -2 -25 -4z"/>
<path d="M10590 741 c0 -11 59 -23 72 -15 15 9 -12 24 -44 24 -16 0 -28 -4
-28 -9z"/>
<path d="M16818 743 c6 -2 18 -2 25 0 6 3 1 5 -13 5 -14 0 -19 -2 -12 -5z"/>
<path d="M5918 733 c7 -3 16 -2 19 1 4 3 -2 6 -13 5 -11 0 -14 -3 -6 -6z"/>
<path d="M6570 730 c20 -13 40 -13 40 0 0 6 -12 10 -27 10 -22 0 -25 -2 -13
-10z"/>
<path d="M7366 730 c7 -7 19 -7 35 -1 23 9 22 10 -10 10 -24 1 -32 -2 -25 -9z"/>
<path d="M10348 733 c6 -2 18 -2 25 0 6 3 1 5 -13 5 -14 0 -19 -2 -12 -5z"/>
<path d="M14518 733 c7 -3 16 -2 19 1 4 3 -2 6 -13 5 -11 0 -14 -3 -6 -6z"/>
<path d="M16270 730 c0 -12 8 -12 35 0 18 8 17 9 -7 9 -16 1 -28 -3 -28 -9z"/>
<path d="M1000 720 c0 -5 5 -10 10 -10 6 0 10 5 10 10 0 6 -4 10 -10 10 -5 0
-10 -4 -10 -10z"/>
<path d="M6095 720 c4 -6 1 -17 -5 -25 -17 -20 9 -29 57 -20 l36 7 -29 23
c-29 24 -71 34 -59 15z"/>
<path d="M6500 720 c0 -5 7 -10 16 -10 8 0 12 5 9 10 -3 6 -10 10 -16 10 -5 0
-9 -4 -9 -10z"/>
<path d="M9813 723 c9 -2 25 -2 35 0 9 3 1 5 -18 5 -19 0 -27 -2 -17 -5z"/>
<path d="M10157 724 c-13 -13 -7 -24 14 -24 11 0 19 5 17 12 -5 14 -22 21 -31
12z"/>
<path d="M14033 723 c9 -2 23 -2 30 0 6 3 -1 5 -18 5 -16 0 -22 -2 -12 -5z"/>
<path d="M440 709 c0 -5 5 -7 10 -4 6 3 10 8 10 11 0 2 -4 4 -10 4 -5 0 -10
-5 -10 -11z"/>
<path d="M5758 713 c6 -2 18 -2 25 0 6 3 1 5 -13 5 -14 0 -19 -2 -12 -5z"/>
<path d="M11260 716 c0 -2 7 -6 15 -10 8 -3 15 -1 15 4 0 6 -7 10 -15 10 -8 0
-15 -2 -15 -4z"/>
<path d="M890 700 c0 -5 7 -10 15 -10 8 0 15 5 15 10 0 6 -7 10 -15 10 -8 0
-15 -4 -15 -10z"/>
<path d="M2438 698 c-7 -21 19 -38 59 -38 40 0 63 14 63 37 0 18 -117 18 -122
1z"/>
<path d="M2835 700 c-8 -13 35 -13 55 0 11 7 7 10 -17 10 -17 0 -35 -4 -38
-10z"/>
<path d="M6395 700 c-3 -5 1 -10 9 -10 9 0 16 5 16 10 0 6 -4 10 -9 10 -6 0
-13 -4 -16 -10z"/>
<path d="M7568 703 c7 -3 16 -2 19 1 4 3 -2 6 -13 5 -11 0 -14 -3 -6 -6z"/>
<path d="M7940 701 c0 -29 14 -41 50 -41 51 0 70 8 70 31 0 17 -8 19 -60 19
-33 0 -60 -4 -60 -9z"/>
<path d="M9595 700 c-3 -5 3 -10 15 -10 12 0 18 5 15 10 -3 6 -10 10 -15 10
-5 0 -12 -4 -15 -10z"/>
<path d="M10053 703 c-33 -6 -28 -23 6 -23 17 0 33 -4 36 -10 3 -5 20 -10 37
-10 l31 0 -37 25 c-20 14 -40 24 -44 24 -4 -1 -17 -4 -29 -6z"/>
<path d="M10610 700 c0 -5 7 -10 15 -10 8 0 15 5 15 10 0 6 -7 10 -15 10 -8 0
-15 -4 -15 -10z"/>
<path d="M13718 703 c7 -3 16 -2 19 1 4 3 -2 6 -13 5 -11 0 -14 -3 -6 -6z"/>
<path d="M13805 700 c-3 -5 3 -10 14 -10 12 0 21 5 21 10 0 6 -6 10 -14 10 -8
0 -18 -4 -21 -10z"/>
<path d="M14267 703 c-32 -5 -27 -23 7 -23 12 0 27 -5 33 -11 6 -6 23 -9 39
-7 l29 3 -38 23 c-21 12 -39 21 -40 21 -1 -1 -14 -4 -30 -6z"/>
<path d="M16468 703 c7 -3 16 -2 19 1 4 3 -2 6 -13 5 -11 0 -14 -3 -6 -6z"/>
<path d="M17773 696 c3 -7 0 -19 -6 -26 -9 -10 -9 -14 1 -17 6 -3 12 -11 12
-18 0 -16 25 -26 45 -19 12 5 13 10 4 20 -9 12 -4 14 29 14 23 0 44 5 47 10 4
6 -9 10 -33 10 -26 0 -45 7 -57 20 -21 23 -50 27 -42 6z"/>
<path d="M7348 693 c7 -3 16 -2 19 1 4 3 -2 6 -13 5 -11 0 -14 -3 -6 -6z"/>
<path d="M9838 693 c12 -2 30 -2 40 0 9 3 -1 5 -23 4 -22 0 -30 -2 -17 -4z"/>
<path d="M9960 690 c-11 -7 -9 -11 13 -19 37 -14 37 -14 37 9 0 21 -24 27 -50
10z"/>
<path d="M10220 691 c0 -5 5 -13 10 -16 6 -3 10 -2 10 4 0 5 -4 13 -10 16 -5
3 -10 2 -10 -4z"/>
<path d="M14058 693 c12 -2 30 -2 40 0 9 3 -1 5 -23 4 -22 0 -30 -2 -17 -4z"/>
<path d="M14172 691 c-10 -6 -6 -11 16 -19 24 -8 32 -7 36 3 9 24 -24 34 -52
16z"/>
<path d="M16248 693 c6 -2 18 -2 25 0 6 3 1 5 -13 5 -14 0 -19 -2 -12 -5z"/>
<path d="M720 680 c20 -13 60 -13 60 0 0 6 -17 10 -37 10 -28 0 -34 -3 -23
-10z"/>
<path d="M1115 680 c3 -5 14 -10 23 -10 15 0 15 2 2 10 -20 13 -33 13 -25 0z"/>
<path d="M5455 680 c3 -5 10 -10 16 -10 5 0 9 5 9 10 0 6 -7 10 -16 10 -8 0
-12 -4 -9 -10z"/>
<path d="M6225 680 c3 -5 20 -10 36 -10 18 0 28 4 24 10 -3 6 -20 10 -36 10
-18 0 -28 -4 -24 -10z"/>
<path d="M6620 680 c20 -13 33 -13 25 0 -3 6 -14 10 -23 10 -15 0 -15 -2 -2
-10z"/>
<path d="M8538 683 c6 -2 18 -2 25 0 6 3 1 5 -13 5 -14 0 -19 -2 -12 -5z"/>
<path d="M10333 683 c9 -2 25 -2 35 0 9 3 1 5 -18 5 -19 0 -27 -2 -17 -5z"/>
<path d="M10440 680 c20 -13 73 -13 65 0 -3 6 -23 10 -43 10 -28 0 -33 -3 -22
-10z"/>
<path d="M13537 683 c-11 -11 -8 -23 6 -23 8 0 14 7 14 15 0 16 -9 19 -20 8z"/>
<path d="M14435 680 c4 -6 11 -8 16 -5 14 9 11 15 -7 15 -8 0 -12 -5 -9 -10z"/>
<path d="M14543 683 c9 -2 23 -2 30 0 6 3 -1 5 -18 5 -16 0 -22 -2 -12 -5z"/>
<path d="M15120 680 c20 -13 80 -13 80 0 0 6 -21 10 -47 10 -35 0 -44 -3 -33
-10z"/>
<path d="M17438 683 c6 -2 18 -2 25 0 6 3 1 5 -13 5 -14 0 -19 -2 -12 -5z"/>
<path d="M17715 680 c-3 -5 3 -10 15 -10 12 0 18 5 15 10 -3 6 -10 10 -15 10
-5 0 -12 -4 -15 -10z"/>
<path d="M20348 683 c7 -3 16 -2 19 1 4 3 -2 6 -13 5 -11 0 -14 -3 -6 -6z"/>
<path d="M812 665 c-13 -16 -5 -19 22 -9 9 3 16 10 16 15 0 14 -24 10 -38 -6z"/>
<path d="M6320 665 c-14 -16 -10 -18 14 -9 9 3 16 10 16 15 0 14 -16 11 -30
-6z"/>
<path d="M7090 670 c0 -5 9 -10 19 -10 11 0 23 5 26 10 4 6 -5 10 -19 10 -14
0 -26 -4 -26 -10z"/>
<path d="M8818 673 c6 -2 18 -2 25 0 6 3 1 5 -13 5 -14 0 -19 -2 -12 -5z"/>
<path d="M9518 673 c7 -3 16 -2 19 1 4 3 -2 6 -13 5 -11 0 -14 -3 -6 -6z"/>
<path d="M10532 665 c-16 -19 -2 -19 34 0 29 15 29 15 4 15 -14 -1 -31 -7 -38
-15z"/>
<path d="M10848 673 c7 -3 16 -2 19 1 4 3 -2 6 -13 5 -11 0 -14 -3 -6 -6z"/>
<path d="M11310 670 c0 -5 11 -10 25 -10 14 0 25 5 25 10 0 6 -11 10 -25 10
-14 0 -25 -4 -25 -10z"/>
<path d="M13728 673 c7 -3 16 -2 19 1 4 3 -2 6 -13 5 -11 0 -14 -3 -6 -6z"/>
<path d="M15220 665 c-14 -16 -10 -18 14 -9 9 3 16 10 16 15 0 14 -16 11 -30
-6z"/>
<path d="M10618 663 c7 -3 16 -2 19 1 4 3 -2 6 -13 5 -11 0 -14 -3 -6 -6z"/>
<path d="M10796 648 c6 -22 21 -38 36 -38 4 0 2 14 -3 30 -13 36 -44 43 -33 8z"/>
<path d="M11195 660 c3 -5 10 -10 16 -10 5 0 9 5 9 10 0 6 -7 10 -16 10 -8 0
-12 -4 -9 -10z"/>
<path d="M8718 653 c7 -3 16 -2 19 1 4 3 -2 6 -13 5 -11 0 -14 -3 -6 -6z"/>
<path d="M10316 651 c5 -5 23 -13 39 -16 29 -7 29 -7 10 8 -21 17 -66 24 -49
8z"/>
<path d="M1076 635 c-3 -8 -1 -15 3 -15 5 0 16 -3 24 -6 12 -4 14 0 10 15 -6
24 -28 28 -37 6z"/>
<path d="M6587 636 c-6 -14 12 -26 36 -26 8 0 7 3 -1 9 -8 4 -13 12 -12 17 3
15 -17 15 -23 0z"/>
<path d="M7385 639 c18 -5 33 -5 39 1 7 7 -4 10 -29 9 -40 -1 -40 -1 -10 -10z"/>
<path d="M9980 640 c0 -5 -13 -10 -30 -10 -16 0 -30 -4 -30 -10 0 -15 60 -12
76 4 18 19 18 26 -1 26 -8 0 -15 -4 -15 -10z"/>
<path d="M10177 636 c12 -9 37 -18 55 -21 l33 -5 -30 14 c-16 7 -41 17 -55 21
l-25 7 22 -16z"/>
<path d="M11595 640 c28 -12 55 -12 55 0 0 6 -17 10 -37 9 -31 0 -34 -2 -18
-9z"/>
<path d="M14200 641 c0 -4 -15 -13 -32 -19 l-33 -10 33 -1 c17 -1 32 4 32 9 0
6 7 10 15 10 8 0 15 5 15 10 0 6 -7 10 -15 10 -8 0 -15 -4 -15 -9z"/>
<path d="M16280 640 c36 -11 50 -11 50 0 0 6 -17 10 -37 9 -34 -1 -35 -2 -13
-9z"/>
<path d="M2088 633 c7 -3 16 -2 19 1 4 3 -2 6 -13 5 -11 0 -14 -3 -6 -6z"/>
<path d="M11639 608 c-39 -43 -37 -51 9 -33 47 20 54 28 46 48 -9 25 -21 21
-55 -15z"/>
<path d="M218 623 c7 -3 16 -2 19 1 4 3 -2 6 -13 5 -11 0 -14 -3 -6 -6z"/>
<path d="M1930 620 c0 -5 5 -10 10 -10 6 0 10 5 10 10 0 6 -4 10 -10 10 -5 0
-10 -4 -10 -10z"/>
<path d="M5718 623 c6 -2 18 -2 25 0 6 3 1 5 -13 5 -14 0 -19 -2 -12 -5z"/>
<path d="M7078 623 c7 -3 16 -2 19 1 4 3 -2 6 -13 5 -11 0 -14 -3 -6 -6z"/>
<path d="M7435 620 c-3 -5 1 -10 10 -10 9 0 13 5 10 10 -3 6 -8 10 -10 10 -2
0 -7 -4 -10 -10z"/>
<path d="M9548 623 c7 -3 16 -2 19 1 4 3 -2 6 -13 5 -11 0 -14 -3 -6 -6z"/>
<path d="M11820 610 c-9 -16 -8 -18 5 -14 8 4 15 12 15 20 0 20 -7 17 -20 -6z"/>
<path d="M12270 603 c-50 -35 -80 -65 -80 -79 0 -17 65 -27 90 -14 21 11 28
54 10 65 -21 13 -9 25 30 31 45 7 55 24 13 23 -16 0 -44 -12 -63 -26z"/>
<path d="M13758 623 c6 -2 18 -2 25 0 6 3 1 5 -13 5 -14 0 -19 -2 -12 -5z"/>
<path d="M14430 617 c14 -8 31 -11 39 -9 11 4 10 7 -5 13 -10 4 -28 8 -39 8
-17 1 -17 -1 5 -12z"/>
<path d="M16335 620 c-3 -5 1 -10 10 -10 9 0 13 5 10 10 -3 6 -8 10 -10 10 -2
0 -7 -4 -10 -10z"/>
<path d="M9668 613 c6 -2 18 -2 25 0 6 3 1 5 -13 5 -14 0 -19 -2 -12 -5z"/>
<path d="M10058 613 c6 -2 18 -2 25 0 6 3 1 5 -13 5 -14 0 -19 -2 -12 -5z"/>
<path d="M10408 613 c6 -2 18 -2 25 0 6 3 1 5 -13 5 -14 0 -19 -2 -12 -5z"/>
<path d="M13888 613 c7 -3 16 -2 19 1 4 3 -2 6 -13 5 -11 0 -14 -3 -6 -6z"/>
<path d="M18568 613 c6 -2 18 -2 25 0 6 3 1 5 -13 5 -14 0 -19 -2 -12 -5z"/>
<path d="M1183 593 c9 -2 23 -2 30 0 6 3 -1 5 -18 5 -16 0 -22 -2 -12 -5z"/>
<path d="M1318 593 c7 -3 16 -2 19 1 4 3 -2 6 -13 5 -11 0 -14 -3 -6 -6z"/>
<path d="M2175 590 c3 -5 13 -10 21 -10 8 0 12 5 9 10 -3 6 -13 10 -21 10 -8
0 -12 -4 -9 -10z"/>
<path d="M6693 593 c9 -2 23 -2 30 0 6 3 -1 5 -18 5 -16 0 -22 -2 -12 -5z"/>
<path d="M6828 593 c7 -3 16 -2 19 1 4 3 -2 6 -13 5 -11 0 -14 -3 -6 -6z"/>
<path d="M7680 590 c0 -5 7 -10 15 -10 8 0 15 5 15 10 0 6 -7 10 -15 10 -8 0
-15 -4 -15 -10z"/>
<path d="M10770 590 c0 -5 5 -10 10 -10 6 0 10 5 10 10 0 6 -4 10 -10 10 -5 0
-10 -4 -10 -10z"/>
<path d="M10903 593 c9 -2 23 -2 30 0 6 3 -1 5 -18 5 -16 0 -22 -2 -12 -5z"/>
<path d="M11900 590 c0 -5 7 -10 16 -10 8 0 12 5 9 10 -3 6 -10 10 -16 10 -5
0 -9 -4 -9 -10z"/>
<path d="M16580 590 c0 -5 7 -10 15 -10 8 0 15 5 15 10 0 6 -7 10 -15 10 -8 0
-15 -4 -15 -10z"/>
<path d="M18081 553 c-17 -20 -29 -38 -27 -40 5 -5 74 26 80 36 7 11 -3 41
-14 41 -5 0 -22 -17 -39 -37z"/>
<path d="M138 568 c9 -9 15 -9 24 0 9 9 7 12 -12 12 -19 0 -21 -3 -12 -12z"/>
<path d="M498 573 c6 -2 18 -2 25 0 6 3 1 5 -13 5 -14 0 -19 -2 -12 -5z"/>
<path d="M5640 570 c0 -5 4 -10 9 -10 6 0 13 5 16 10 3 6 -1 10 -9 10 -9 0
-16 -4 -16 -10z"/>
<path d="M5998 573 c6 -2 18 -2 25 0 6 3 1 5 -13 5 -14 0 -19 -2 -12 -5z"/>
<path d="M9418 573 c6 -2 18 -2 25 0 6 3 1 5 -13 5 -14 0 -19 -2 -12 -5z"/>
<path d="M9778 573 c6 -2 18 -2 25 0 6 3 1 5 -13 5 -14 0 -19 -2 -12 -5z"/>
<path d="M9858 568 c9 -9 15 -9 24 0 9 9 7 12 -12 12 -19 0 -21 -3 -12 -12z"/>
<path d="M10218 573 c6 -2 18 -2 25 0 6 3 1 5 -13 5 -14 0 -19 -2 -12 -5z"/>
<path d="M13518 573 c6 -2 18 -2 25 0 6 3 1 5 -13 5 -14 0 -19 -2 -12 -5z"/>
<path d="M13638 573 c7 -3 16 -2 19 1 4 3 -2 6 -13 5 -11 0 -14 -3 -6 -6z"/>
<path d="M13998 573 c6 -2 18 -2 25 0 6 3 1 5 -13 5 -14 0 -19 -2 -12 -5z"/>
<path d="M14903 573 c9 -2 23 -2 30 0 6 3 -1 5 -18 5 -16 0 -22 -2 -12 -5z"/>
<path d="M18318 573 c6 -2 18 -2 25 0 6 3 1 5 -13 5 -14 0 -19 -2 -12 -5z"/>
<path d="M18715 554 c-53 -35 -85 -65 -85 -79 0 -6 14 -16 32 -23 26 -10 36
-9 55 3 24 16 32 59 13 70 -20 12 -9 23 30 30 43 7 55 25 17 25 -12 0 -40 -12
-62 -26z"/>
<path d="M360 566 c0 -2 9 -6 20 -9 11 -3 18 -1 14 4 -5 9 -34 13 -34 5z"/>
<path d="M5860 566 c0 -2 11 -6 25 -8 13 -3 22 -1 19 3 -5 9 -44 13 -44 5z"/>
<path d="M9635 560 c3 -5 13 -10 21 -10 8 0 12 5 9 10 -3 6 -13 10 -21 10 -8
0 -12 -4 -9 -10z"/>
<path d="M10088 563 c7 -3 16 -2 19 1 4 3 -2 6 -13 5 -11 0 -14 -3 -6 -6z"/>
<path d="M13570 556 c0 -9 5 -16 10 -16 6 0 10 4 10 9 0 6 -4 13 -10 16 -5 3
-10 -1 -10 -9z"/>
<path d="M13850 560 c19 -13 30 -13 30 0 0 6 -10 10 -22 10 -19 0 -20 -2 -8
-10z"/>
<path d="M14770 566 c0 -2 9 -6 20 -9 11 -3 18 -1 14 4 -5 9 -34 13 -34 5z"/>
<path d="M18260 555 c-10 -12 -10 -15 4 -15 9 0 16 7 16 15 0 8 -2 15 -4 15
-2 0 -9 -7 -16 -15z"/>
<path d="M18535 560 c3 -5 13 -10 21 -10 8 0 12 5 9 10 -3 6 -13 10 -21 10 -8
0 -12 -4 -9 -10z"/>
<path d="M1190 550 c0 -5 5 -10 10 -10 6 0 10 5 10 10 0 6 -4 10 -10 10 -5 0
-10 -4 -10 -10z"/>
<path d="M6690 550 c0 -5 7 -10 15 -10 8 0 15 5 15 10 0 6 -7 10 -15 10 -8 0
-15 -4 -15 -10z"/>
<path d="M10910 550 c0 -5 7 -10 16 -10 8 0 12 5 9 10 -3 6 -10 10 -16 10 -5
0 -9 -4 -9 -10z"/>
<path d="M1414 535 c11 -8 24 -15 30 -15 5 0 1 7 -10 15 -10 8 -23 14 -29 14
-5 0 -1 -6 9 -14z"/>
<path d="M1558 543 c7 -3 16 -2 19 1 4 3 -2 6 -13 5 -11 0 -14 -3 -6 -6z"/>
<path d="M6904 541 c3 -5 15 -11 26 -14 17 -4 19 -3 9 9 -12 15 -44 20 -35 5z"/>
<path d="M7058 543 c7 -3 16 -2 19 1 4 3 -2 6 -13 5 -11 0 -14 -3 -6 -6z"/>
<path d="M10138 543 c7 -3 16 -2 19 1 4 3 -2 6 -13 5 -11 0 -14 -3 -6 -6z"/>
<path d="M11134 535 c11 -8 24 -15 30 -15 5 0 1 7 -10 15 -10 8 -23 14 -29 14
-5 0 -1 -6 9 -14z"/>
<path d="M11278 543 c7 -3 16 -2 19 1 4 3 -2 6 -13 5 -11 0 -14 -3 -6 -6z"/>
<path d="M15958 543 c7 -3 16 -2 19 1 4 3 -2 6 -13 5 -11 0 -14 -3 -6 -6z"/>
<path d="M17210 540 c0 -5 5 -10 10 -10 6 0 10 5 10 10 0 6 -4 10 -10 10 -5 0
-10 -4 -10 -10z"/>
<path d="M1128 523 c7 -3 16 -2 19 1 4 3 -2 6 -13 5 -11 0 -14 -3 -6 -6z"/>
<path d="M4280 522 c0 -6 9 -12 20 -15 11 -3 20 -3 20 -1 0 2 -9 8 -20 14 -11
6 -20 7 -20 2z"/>
<path d="M10848 523 c7 -3 16 -2 19 1 4 3 -2 6 -13 5 -11 0 -14 -3 -6 -6z"/>
<path d="M18928 443 c7 -3 16 -2 19 1 4 3 -2 6 -13 5 -11 0 -14 -3 -6 -6z"/>
<path d="M3478 383 c7 -3 16 -2 19 1 4 3 -2 6 -13 5 -11 0 -14 -3 -6 -6z"/>
<path d="M3935 330 c3 -5 8 -10 11 -10 2 0 4 5 4 10 0 6 -5 10 -11 10 -5 0 -7
-4 -4 -10z"/>
<path d="M4028 333 c7 -3 16 -2 19 1 4 3 -2 6 -13 5 -11 0 -14 -3 -6 -6z"/>
</g>
</svg>
